<?xml version="1.0" encoding="utf-8"?>
<!-- Generator: Adobe Illustrator 27.9.0, SVG Export Plug-In . SVG Version: 6.00 Build 0)  -->
<svg version="1.1" id="Ebene_1" xmlns="http://www.w3.org/2000/svg" xmlns:xlink="http://www.w3.org/1999/xlink" x="0px" y="0px"
	 viewBox="0 0 535.7 630.3" style="enable-background:new 0 0 535.7 630.3;" xml:space="preserve">
<style type="text/css">
	.st0{fill:#A5D098;}
	.st1{fill:#8FD2EF;stroke:#518591;}
	.st2{clip-path:url(#SVGID_00000039842770325023115320000011168162279208198272_);}
	.st3{fill:#3F7CAF;}
	.st4{fill:none;stroke:#2C4866;}
	.st5{fill:#8FD2EF;}
	.st6{fill:none;stroke:#518591;}
	.st7{clip-path:url(#SVGID_00000137813459580760017740000012445267139179977616_);}
	.st8{clip-path:url(#SVGID_00000139278982729518445490000007743765896206339758_);}
	.st9{clip-path:url(#SVGID_00000062174063149044220470000014981057034521876129_);fill:#444F84;}
	.st10{clip-path:url(#SVGID_00000062174063149044220470000014981057034521876129_);fill:none;stroke:#161C49;}
	
		.st11{clip-path:url(#SVGID_00000062174063149044220470000014981057034521876129_);fill:#444F84;stroke:#161C49;stroke-miterlimit:10;}
	.st12{fill:#34445B;stroke:#2B2413;}
	.st13{fill:none;stroke:#1A2138;}
</style>
<polygon class="st0" points="224,345.9 229.2,332.4 254.7,318.2 287.9,298 307,286.1 324.3,275.2 357.5,254.9 380.6,237.2 
	399.5,220.8 417.6,201.4 424.1,193.4 428.5,188.8 432.7,185.8 436.7,183.2 439.9,182 443.4,181.8 446,182.6 448.1,184.4 
	449.9,187.4 450.3,191.4 449.2,195.5 446.2,200.7 441.9,206.9 426.8,223 409.9,240.1 384.8,258.6 362.1,274.2 344.5,285.3 
	312.8,304.4 284.9,321.5 264.1,334.5 250.3,343.3 238,354.1 235.5,354.3 219.8,354.6 "/>
<polygon class="st1" points="224,345.9 229.2,332.4 254.7,318.2 287.9,298 307,286.1 324.3,275.2 357.5,254.9 380.6,237.2 
	399.5,220.8 417.6,201.4 424.1,193.4 428.5,188.8 432.7,185.8 436.7,183.2 439.9,182 443.4,181.8 446,182.6 448.1,184.4 
	449.9,187.4 450.3,191.4 449.2,195.5 446.2,200.7 441.9,206.9 426.8,223 409.9,240.1 384.8,258.6 362.1,274.2 344.5,285.3 
	312.8,304.4 284.9,321.5 264.1,334.5 250.3,343.3 238,354.1 235.5,354.3 219.8,354.6 "/>
<g>
	<defs>
		<rect id="SVGID_1_" x="-25.8" y="-107.6" width="595.3" height="841.9"/>
	</defs>
	<clipPath id="SVGID_00000158728618397511549280000011406878663401565093_">
		<use xlink:href="#SVGID_1_"  style="overflow:visible;"/>
	</clipPath>
	<g style="clip-path:url(#SVGID_00000158728618397511549280000011406878663401565093_);">
		<path class="st3" d="M72.8,100.8c8.2-8.1,6.4-23.2-4-33.9c-10.5-10.6-25.6-12.7-33.8-4.6c-8.2,8.1-6.4,23.2,4,33.9
			C49.4,106.8,64.5,108.9,72.8,100.8"/>
		<path class="st4" d="M72.8,100.8c8.2-8.1,6.4-23.2-4-33.9c-10.5-10.6-25.6-12.7-33.8-4.6c-8.2,8.1-6.4,23.2,4,33.9
			C49.4,106.8,64.5,108.9,72.8,100.8z"/>
	</g>
</g>
<polygon class="st5" points="181.1,355 173.2,336.3 163.3,309.4 150.2,272.8 142.3,251.8 135.1,232.6 121.8,196.1 109.1,169.9 
	96.8,148 81.4,126.4 68.1,110.4 63.8,108.9 60.3,106.2 61.1,102.9 62.5,100.3 64.5,97.3 66.9,94.2 69.8,91.5 73.2,89.2 75.8,87.5 
	79,86 82.4,90 83.5,94.1 91.7,103.7 104.4,121.7 117.8,141.8 130.9,170 141.6,195.4 149,214.8 161.5,249.7 172.6,280.4 181.2,303.4 
	187.1,318.7 188.2,338.8 188.2,347.2 189.4,355 "/>
<polygon class="st6" points="181.1,355 173.2,336.3 163.3,309.4 150.2,272.8 142.3,251.8 135.1,232.6 121.8,196.1 109.1,169.9 
	96.8,148 81.4,126.4 68.1,110.4 63.8,108.9 60.3,106.2 61.1,102.9 62.5,100.3 64.5,97.3 66.9,94.2 69.8,91.5 73.2,89.2 75.8,87.5 
	79,86 82.4,90 83.5,94.1 91.7,103.7 104.4,121.7 117.8,141.8 130.9,170 141.6,195.4 149,214.8 161.5,249.7 172.6,280.4 181.2,303.4 
	187.1,318.7 188.2,338.8 188.2,347.2 189.4,355 "/>
<g>
	<defs>
		<rect id="SVGID_00000163790204258452250580000004593934898002059147_" x="-25.8" y="-107.6" width="595.3" height="841.9"/>
	</defs>
	<clipPath id="SVGID_00000034060262914175093020000014466319919494516114_">
		<use xlink:href="#SVGID_00000163790204258452250580000004593934898002059147_"  style="overflow:visible;"/>
	</clipPath>
	<g style="clip-path:url(#SVGID_00000034060262914175093020000014466319919494516114_);">
		<path class="st3" d="M166.9,76.6c10.9-3.7,16-18.1,11.2-32.2c-4.7-14.1-17.4-22.6-28.4-19c-10.9,3.7-16,18.1-11.2,32.2
			C143.2,71.8,155.9,80.3,166.9,76.6"/>
		<path class="st4" d="M166.9,76.6c10.9-3.7,16-18.1,11.2-32.2c-4.7-14.1-17.4-22.6-28.4-19c-10.9,3.7-16,18.1-11.2,32.2
			C143.2,71.8,155.9,80.3,166.9,76.6z"/>
	</g>
</g>
<polygon class="st5" points="187.3,356.3 187.3,331.7 186.5,303.1 185.6,264.3 184.8,241.8 184,221.4 183,182.5 179.3,153.6 
	174.6,129 166.9,103.7 159.5,84.9 158.2,82.8 155.4,80.2 153.9,76.7 156.7,74.2 160.4,71.1 165.1,68.6 169.7,67.5 174.2,66.4 
	178,66 179.4,69 179.6,73.2 180,76.1 183.7,85.4 190.1,106.5 196.4,129.7 199.9,160.7 202,188.1 202.9,208.9 203.6,245.9 
	204.4,278.6 205.3,303.1 206.1,319.5 206.9,337.9 207.7,356.3 199.8,356.5 "/>
<polygon class="st6" points="187.3,356.3 187.3,331.7 186.5,303.1 185.6,264.3 184.8,241.8 184,221.4 183,182.5 179.3,153.6 
	174.6,129 166.9,103.7 159.5,84.9 158.2,82.8 155.4,80.2 153.9,76.7 156.7,74.2 160.4,71.1 165.1,68.6 169.7,67.5 174.2,66.4 
	178,66 179.4,69 179.6,73.2 180,76.1 183.7,85.4 190.1,106.5 196.4,129.7 199.9,160.7 202,188.1 202.9,208.9 203.6,245.9 
	204.4,278.6 205.3,303.1 206.1,319.5 206.9,337.9 207.7,356.3 199.8,356.5 "/>
<g>
	<defs>
		<rect id="SVGID_00000036229720302690738770000011444076911444941460_" x="-25.8" y="-107.6" width="595.3" height="841.9"/>
	</defs>
	<clipPath id="SVGID_00000132046924266440248300000014903100660818076548_">
		<use xlink:href="#SVGID_00000036229720302690738770000011444076911444941460_"  style="overflow:visible;"/>
	</clipPath>
	<g style="clip-path:url(#SVGID_00000132046924266440248300000014903100660818076548_);">
		<path class="st3" d="M325,105.9c11.4,1.7,22.4-8.9,24.6-23.6c2.2-14.8-5.3-28.1-16.7-29.8c-11.4-1.7-22.5,8.9-24.6,23.6
			C306.1,90.8,313.6,104.2,325,105.9"/>
		<path class="st4" d="M325,105.9c11.4,1.7,22.4-8.9,24.6-23.6c2.2-14.8-5.3-28.1-16.7-29.8c-11.4-1.7-22.5,8.9-24.6,23.6
			C306.1,90.8,313.6,104.2,325,105.9z"/>
	</g>
</g>
<polygon class="st5" points="207.4,346.5 207,332.4 221.5,307.7 241.4,274.3 252.6,254.8 262.7,237 282.5,203.5 294.6,177.1 
	303.7,153.7 310.5,128.1 314.6,106.5 313.6,103.6 313.8,100 318.2,99.1 322.8,98.8 327.9,99 331.4,99.7 335.5,101.2 339.9,103.3 
	339.3,106.7 338,108.4 336.6,110.2 334.6,121.5 328.7,142.8 321.8,165.9 308.4,194 295.6,218.4 285.4,236.5 266.3,268.2 
	249.7,296.4 237.4,317.6 229.5,331.9 223.6,347.2 219.4,355 207.8,356.2 "/>
<polygon class="st6" points="207.4,346.5 207,332.4 221.5,307.7 241.4,274.3 252.6,254.8 262.7,237 282.5,203.5 294.6,177.1 
	303.7,153.7 310.5,128.1 314.6,106.5 313.6,103.6 313.8,100 318.2,99.1 322.8,98.8 327.9,99 331.4,99.7 335.5,101.2 339.9,103.3 
	339.3,106.7 338,108.4 336.6,110.2 334.6,121.5 328.7,142.8 321.8,165.9 308.4,194 295.6,218.4 285.4,236.5 266.3,268.2 
	249.7,296.4 237.4,317.6 229.5,331.9 223.6,347.2 219.4,355 207.8,356.2 "/>
<g>
	<defs>
		<rect id="SVGID_00000047019036615265305230000002423358073696006580_" x="-25.8" y="-107.6" width="595.3" height="841.9"/>
	</defs>
	<clipPath id="SVGID_00000116939782998006092130000006351466983745707960_">
		<use xlink:href="#SVGID_00000047019036615265305230000002423358073696006580_"  style="overflow:visible;"/>
	</clipPath>
	<path style="clip-path:url(#SVGID_00000116939782998006092130000006351466983745707960_);fill:#444F84;" d="M449,164.2
		c2.4,0.2,4.5-1.7,4.7-4.3c0.2-2.6-1.6-4.8-4-5c-2.4-0.2-4.5,1.7-4.7,4.3C444.8,161.8,446.6,164,449,164.2"/>
	<path style="clip-path:url(#SVGID_00000116939782998006092130000006351466983745707960_);fill:none;stroke:#161C49;" d="M449,164.2
		c2.4,0.2,4.5-1.7,4.7-4.3c0.2-2.6-1.6-4.8-4-5c-2.4-0.2-4.5,1.7-4.7,4.3C444.8,161.8,446.6,164,449,164.2z"/>
	<path style="clip-path:url(#SVGID_00000116939782998006092130000006351466983745707960_);fill:#444F84;" d="M443.4,138.9
		c2.4,0.2,4.5-1.7,4.7-4.3c0.2-2.6-1.6-4.8-4-5c-2.4-0.2-4.5,1.7-4.7,4.3C439.2,136.5,440.9,138.7,443.4,138.9"/>
	<path style="clip-path:url(#SVGID_00000116939782998006092130000006351466983745707960_);fill:none;stroke:#161C49;" d="
		M443.4,138.9c2.4,0.2,4.5-1.7,4.7-4.3c0.2-2.6-1.6-4.8-4-5c-2.4-0.2-4.5,1.7-4.7,4.3C439.2,136.5,440.9,138.7,443.4,138.9z"/>
	<path style="clip-path:url(#SVGID_00000116939782998006092130000006351466983745707960_);fill:#444F84;" d="M472,144.8
		c2.4,0.2,4.5-1.7,4.7-4.3c0.2-2.6-1.6-4.8-4-5s-4.5,1.7-4.7,4.3C467.8,142.4,469.6,144.6,472,144.8"/>
	<path style="clip-path:url(#SVGID_00000116939782998006092130000006351466983745707960_);fill:none;stroke:#161C49;" d="M472,144.8
		c2.4,0.2,4.5-1.7,4.7-4.3c0.2-2.6-1.6-4.8-4-5s-4.5,1.7-4.7,4.3C467.8,142.4,469.6,144.6,472,144.8z"/>
	
		<path style="clip-path:url(#SVGID_00000116939782998006092130000006351466983745707960_);fill:#444F84;stroke:#161C49;stroke-miterlimit:10;" d="
		M472,173.4c2.4,0.2,4.5-1.7,4.7-4.3c0.2-2.6-1.6-4.8-4-5c-2.4-0.2-4.5,1.7-4.7,4.3C467.8,170.9,469.6,173.2,472,173.4"/>
	<path style="clip-path:url(#SVGID_00000116939782998006092130000006351466983745707960_);fill:none;stroke:#161C49;" d="M472,173.4
		c2.4,0.2,4.5-1.7,4.7-4.3c0.2-2.6-1.6-4.8-4-5c-2.4-0.2-4.5,1.7-4.7,4.3C467.8,170.9,469.6,173.2,472,173.4z"/>
	<path style="clip-path:url(#SVGID_00000116939782998006092130000006351466983745707960_);fill:#444F84;" d="M499.2,158.3
		c2.4,0.2,4.5-1.7,4.7-4.3c0.2-2.6-1.6-4.8-4-5c-2.4-0.2-4.5,1.7-4.7,4.3C494.9,155.8,496.8,158.1,499.2,158.3"/>
	<path style="clip-path:url(#SVGID_00000116939782998006092130000006351466983745707960_);fill:none;stroke:#161C49;" d="
		M499.2,158.3c2.4,0.2,4.5-1.7,4.7-4.3c0.2-2.6-1.6-4.8-4-5c-2.4-0.2-4.5,1.7-4.7,4.3C494.9,155.8,496.8,158.1,499.2,158.3z"/>
	<path style="clip-path:url(#SVGID_00000116939782998006092130000006351466983745707960_);fill:#444F84;" d="M504.8,136
		c2.4,0.2,4.5-1.7,4.7-4.3c0.2-2.6-1.6-4.8-4-5c-2.4-0.2-4.5,1.7-4.7,4.3C500.6,133.6,502.4,135.8,504.8,136"/>
	<path style="clip-path:url(#SVGID_00000116939782998006092130000006351466983745707960_);fill:none;stroke:#161C49;" d="M504.8,136
		c2.4,0.2,4.5-1.7,4.7-4.3c0.2-2.6-1.6-4.8-4-5c-2.4-0.2-4.5,1.7-4.7,4.3C500.6,133.6,502.4,135.8,504.8,136z"/>
	
		<path style="clip-path:url(#SVGID_00000116939782998006092130000006351466983745707960_);fill:#444F84;stroke:#161C49;stroke-miterlimit:10;" d="
		M487.9,116.6c2.4,0.2,4.5-1.7,4.7-4.3c0.2-2.6-1.6-4.8-4-5c-2.4-0.2-4.5,1.7-4.7,4.3C483.7,114.1,485.5,116.4,487.9,116.6"/>
	<path style="clip-path:url(#SVGID_00000116939782998006092130000006351466983745707960_);fill:none;stroke:#161C49;" d="
		M487.9,116.6c2.4,0.2,4.5-1.7,4.7-4.3c0.2-2.6-1.6-4.8-4-5c-2.4-0.2-4.5,1.7-4.7,4.3C483.7,114.1,485.5,116.4,487.9,116.6z"/>
	<path style="clip-path:url(#SVGID_00000116939782998006092130000006351466983745707960_);fill:#444F84;" d="M493.5,200
		c2.4,0.2,4.5-1.7,4.7-4.3c0.2-2.6-1.6-4.8-4-5s-4.5,1.7-4.7,4.3C489.4,197.6,491.1,199.8,493.5,200"/>
	<path style="clip-path:url(#SVGID_00000116939782998006092130000006351466983745707960_);fill:none;stroke:#161C49;" d="M493.5,200
		c2.4,0.2,4.5-1.7,4.7-4.3c0.2-2.6-1.6-4.8-4-5s-4.5,1.7-4.7,4.3C489.4,197.6,491.1,199.8,493.5,200z"/>
</g>
<polygon class="st12" points="188,354.3 207.4,354.3 213.7,355.9 219.7,354.6 229.6,354.6 237.7,354.6 239.8,357.8 241.8,361.6 
	244.7,366.9 250.5,369.5 263.5,370.6 270.3,371.8 281.9,372.9 290.8,374 294.2,364.7 295.3,360.9 296.5,354.3 301,351.5 
	306.5,352.9 309.2,355.7 310.1,359.6 311.3,363.4 309.2,375.3 308.5,380.3 308.5,386.8 312.5,390 319.4,390.9 327.6,392 335,393.1 
	341.5,394.2 345.4,404.2 341.5,410 329,410.6 318.6,409.3 309.9,407.4 303.1,406.1 296.9,402.9 292.8,398.4 291.4,391.3 
	283.3,391.3 271.7,390 260.9,388 249.8,386.8 242.6,385.3 235.5,382.3 226.6,380.3 221.7,382.3 221.7,386.8 225.9,391.3 228,393.2 
	233.4,395.8 239.5,397.4 245,399.7 249.4,403 253.6,406.5 257.1,415 259.2,423.4 259.2,429.8 258.5,436.1 257.1,441.7 252.2,447.4 
	243.7,450.7 225.9,451.8 210,453 192,453 181.9,460 181.9,472.7 185.7,480.4 198.6,489.5 210,490.4 221.7,489.5 237.5,489.5 
	253.2,491.5 265.3,498.5 277.8,509.5 283.3,523.7 284.6,535.3 281.2,542.4 267.6,548.9 249.8,555.4 234.8,556.4 230,564.4 
	228.7,574.1 231.4,583.8 231.4,592.2 229.9,598.9 221.4,602.6 214.7,603 210,599.9 205.4,590.9 205.4,585.7 204.3,577.6 
	191.8,581.9 191.8,587 185.7,596.1 174.7,606.3 164.5,607.1 153.6,603.2 153.6,594.5 156.5,588.2 161.8,584.4 167.9,579.3 
	168.6,571.5 165.9,566.3 162.1,562.8 160,557.2 165.9,552.1 175.4,551.5 180.9,554.7 183.9,558.6 185.7,563.7 195.2,561.4 
	202.2,558.6 204.3,548.7 210,543.1 221.7,539.2 231.4,535.3 250.8,531.1 252.9,524.1 248,519.2 235.3,514.3 214.2,514.3 192,515.7 
	175.4,510.8 164.9,499.5 158.3,484.9 153.6,475.5 141,479.9 129,479.9 120.8,470.7 121.2,463.5 125.9,460 131.6,460.4 141,460.8 
	153.6,458.6 157.2,449.5 161.4,443.2 169.1,436.8 181.9,431.9 195.6,429.4 205.4,429.4 217.7,428.7 232.6,428.4 234.6,424.2 
	229.9,417.6 217.8,414.8 206.9,410.1 199.3,404.3 192,397.3 188.1,392.4 175.4,399.7 168,400.7 158.3,399.7 153.6,396.4 
	153.6,390.6 156.4,383.2 162.3,380.7 168.6,380.3 176.8,377.6 175.4,371.3 175.4,364.8 180.7,354.3 "/>
<polygon class="st13" points="188,354.3 207.4,354.3 213.7,355.9 219.7,354.6 229.6,354.6 237.7,354.6 239.8,357.8 241.8,361.6 
	244.7,366.9 250.5,369.5 263.5,370.6 270.3,371.8 281.9,372.9 290.8,374 294.2,364.7 295.3,360.9 296.5,354.3 301,351.5 
	306.5,352.9 309.2,355.7 310.1,359.6 311.3,363.4 309.2,375.3 308.5,380.3 308.5,386.8 312.5,390 319.4,390.9 327.6,392 335,393.1 
	341.5,394.2 345.4,404.2 341.5,410 329,410.6 318.6,409.3 309.9,407.4 303.1,406.1 296.9,402.9 292.8,398.4 291.4,391.3 
	283.3,391.3 271.7,390 260.9,388 249.8,386.8 242.6,385.3 235.5,382.3 226.6,380.3 221.7,382.3 221.7,386.8 225.9,391.3 228,393.2 
	233.4,395.8 239.5,397.4 245,399.7 249.4,403 253.6,406.5 257.1,415 259.2,423.4 259.2,429.8 258.5,436.1 257.1,441.7 252.2,447.4 
	243.7,450.7 225.9,451.8 210,453 192,453 181.9,460 181.9,472.7 185.7,480.4 198.6,489.5 210,490.4 221.7,489.5 237.5,489.5 
	253.2,491.5 265.3,498.5 277.8,509.5 283.3,523.7 284.6,535.3 281.2,542.4 267.6,548.9 249.8,555.4 234.8,556.4 230,564.4 
	228.7,574.1 231.4,583.8 231.4,592.2 229.9,598.9 221.4,602.6 214.7,603 210,599.9 205.4,590.9 205.4,585.7 204.3,577.6 
	191.8,581.9 191.8,587 185.7,596.1 174.7,606.3 164.5,607.1 153.6,603.2 153.6,594.5 156.5,588.2 161.8,584.4 167.9,579.3 
	168.6,571.5 165.9,566.3 162.1,562.8 160,557.2 165.9,552.1 175.4,551.5 180.9,554.7 183.9,558.6 185.7,563.7 195.2,561.4 
	202.2,558.6 204.3,548.7 210,543.1 221.7,539.2 231.4,535.3 250.8,531.1 252.9,524.1 248,519.2 235.3,514.3 214.2,514.3 192,515.7 
	175.4,510.8 164.9,499.5 158.3,484.9 153.6,475.5 141,479.9 129,479.9 120.8,470.7 121.2,463.5 125.9,460 131.6,460.4 141,460.8 
	153.6,458.6 157.2,449.5 161.4,443.2 169.1,436.8 181.9,431.9 195.6,429.4 205.4,429.4 217.7,428.7 232.6,428.4 234.6,424.2 
	229.9,417.6 217.8,414.8 206.9,410.1 199.3,404.3 192,397.3 188.1,392.4 175.4,399.7 168,400.7 158.3,399.7 153.6,396.4 
	153.6,390.6 156.4,383.2 162.3,380.7 168.6,380.3 176.8,377.6 175.4,371.3 175.4,364.8 180.7,354.3 "/>
</svg>
