<?xml version="1.0" encoding="UTF-8" standalone="no"?>
<!-- Uploaded to: SVG Repo, www.svgrepo.com, Generator: SVG Repo Mixer Tools -->

<svg
   fill="#000000"
   version="1.1"
   id="Capa_1"
   width="800px"
   height="800px"
   viewBox="0 0 527.669 527.669"
   xml:space="preserve"
   sodipodi:docname="bacteria_white.svg"
   inkscape:version="1.4 (86a8ad7, 2024-10-11)"
   xmlns:inkscape="http://www.inkscape.org/namespaces/inkscape"
   xmlns:sodipodi="http://sodipodi.sourceforge.net/DTD/sodipodi-0.dtd"
   xmlns="http://www.w3.org/2000/svg"
   xmlns:svg="http://www.w3.org/2000/svg"><defs
   id="defs12" /><sodipodi:namedview
   id="namedview12"
   pagecolor="#ffffff"
   bordercolor="#000000"
   borderopacity="0.25"
   inkscape:showpageshadow="2"
   inkscape:pageopacity="0.0"
   inkscape:pagecheckerboard="0"
   inkscape:deskcolor="#d1d1d1"
   inkscape:zoom="0.97875"
   inkscape:cx="400"
   inkscape:cy="400"
   inkscape:window-width="3200"
   inkscape:window-height="1721"
   inkscape:window-x="1911"
   inkscape:window-y="-9"
   inkscape:window-maximized="1"
   inkscape:current-layer="Capa_1" />
<g
   id="g12">
	<g
   id="g11">
		<circle
   cx="124.556"
   cy="206.246"
   r="21.713"
   id="circle1" />
		<path
   d="M388.195,366.229c12.529,0,22.688,10.158,22.688,22.688s-10.159,22.689-22.688,22.689s-22.7-10.16-22.7-22.689    S375.666,366.229,388.195,366.229z"
   id="path1" />
		<path
   d="M271.319,291.6c12.541,0,22.7,10.158,22.7,22.688c0,12.541-10.159,22.7-22.7,22.7c-12.535,0-22.694-10.159-22.694-22.7    C248.625,301.758,258.784,291.6,271.319,291.6z"
   id="path2" />
		<path
   d="M364.315,314.312c8.396,0,15.192,6.796,15.192,15.192c0,8.395-6.796,15.191-15.192,15.191    c-8.396,0-15.203-6.797-15.203-15.191C349.112,321.107,355.92,314.312,364.315,314.312z"
   id="path3" />
		<path
   d="M286.523,358.521c8.396,0,15.192,6.807,15.192,15.203c0,8.385-6.796,15.191-15.192,15.191s-15.204-6.807-15.204-15.191    C271.319,365.328,278.127,358.521,286.523,358.521z"
   id="path4" />
		<path
   d="M169.979,147.294c8.396,0,15.198,6.808,15.198,15.198c0,8.396-6.802,15.198-15.198,15.198    c-8.39,0-15.198-6.802-15.198-15.198C154.782,154.102,161.59,147.294,169.979,147.294z"
   id="path5" />
		<path
   d="M135.403,91.314c6.364,0,11.525,5.161,11.525,11.525c0,6.364-5.161,11.525-11.525,11.525    c-6.37,0-11.531-5.161-11.531-11.525C123.873,96.475,129.034,91.314,135.403,91.314z"
   id="path6" />
		<path
   d="M211.807,239.677c6.37,0,11.531,5.161,11.531,11.531c0,6.364-5.161,11.525-11.531,11.525    c-6.364,0-11.525-5.161-11.525-11.525C200.281,244.838,205.443,239.677,211.807,239.677z"
   id="path7" />
		<path
   d="M187.022,85.802c9.412,0,17.037,7.625,17.037,17.037c0,9.412-7.625,17.037-17.037,17.037    c-9.412,0-17.043-7.625-17.043-17.037C169.979,93.427,177.61,85.802,187.022,85.802z"
   id="path8" />
		<path
   d="M158.454,268.642c6.364,0,11.525,5.156,11.525,11.525c0,6.364-5.161,11.525-11.525,11.525s-11.525-5.161-11.525-11.525    C146.929,273.798,152.09,268.642,158.454,268.642z"
   id="path9" />
		<circle
   cx="214.475"
   cy="341.017"
   r="8.863"
   id="circle9" />
		<path
   d="M419.747,335.844c4.893,0,8.863,3.971,8.863,8.852c0,4.904-3.971,8.863-8.863,8.863s-8.863-3.959-8.863-8.863    C410.884,339.814,414.854,335.844,419.747,335.844z"
   id="path10" />
		<path
   d="M527.667,294.052c0.257-12.868-19.688-12.833-19.934,0c-0.14,6.972-0.816,14.958-4.391,21.054    c-1.856,3.176-10.205,5.523-13.416,6.947c-2.021,0.889-4.111,1.601-6.178,2.395c-1.494-3.305-3.199-6.539-5.033-9.691    c8.934-5.664,18.777-12.449,23.215-21.253c5.23-10.37,3.281-24.277,0.969-35.195c-2.662-12.576-21.883-7.246-19.221,5.295    c1.309,6.23,3.234,15.501,0.258,21.398c-2.663,5.266-10.521,9.949-16.839,13.674c-4.239-4.846-8.933-9.26-14.013-13.16    c6.189-5.22,12.168-10.977,15.963-17.714c5.838-10.369,2.09-25.876-1.297-36.491c-3.911-12.197-23.167-6.971-19.231,5.295    c1.95,6.072,5.769,16.798,2.429,22.729c-3.27,5.798-9.891,10.965-15.822,15.46c-3.504-1.518-7.135-2.727-10.86-3.719    c3.491-4.887,6.54-10.031,8.396-15.519c3.748-11.087-3.457-26.005-8.642-35.551c-6.142-11.298-23.342-1.244-17.212,10.06    c2.954,5.447,7.625,13.843,6.645,20.196c-0.935,5.99-7.356,12.985-12.413,18.45c-1.237,0.058-2.44,0-3.689,0.128    c-6.353,0.66-13.184,0.601-20.236,0.099c6.457-6.078,12.844-13.072,14.899-20.499c3.048-11.058-0.21-23.483-4.367-33.875    c-4.729-11.776-24.008-6.644-19.221,5.302c2.219,5.523,7.321,16.774,4.589,22.548c-3.725,7.882-12.728,14.876-19.08,20.709    c-0.7,0.648-1.027,1.366-1.494,2.049c-6.504-1.472-13.113-3.217-19.887-5.442c7.1-4.402,14.142-9.616,17.562-15.916    c6.014-11,4.811-24.767,2.686-36.713c-2.254-12.635-21.45-7.269-19.221,5.301c0.795,4.438,3.118,16.453-0.104,20.622    c-5.43,7.024-15.32,11.999-22.841,16.471c-0.584,0.345-0.887,0.823-1.343,1.244c-6.353-2.779-12.728-5.716-19.127-9.056    c-0.549-0.286-1.016-0.584-1.553-0.881c7.228-2.301,14.223-5.261,19.454-9.996c8.629-7.8,10.871-22.712,12.109-33.7    c1.447-12.71-18.299-12.6-19.898-0.14c0.105-0.683,0.21-1.542-0.047,0.14c-0.314,2.166-0.747,4.309-1.214,6.434    c-0.935,4.332-2.032,9.756-5.057,13.178c-3.048,3.433-11.233,4.758-15.425,6.078c-3.702,1.156-7.456,2.207-11.21,3.153    c-0.093,0.023-0.14,0.082-0.24,0.123c-9.674-8.705-15.676-18.251-18.986-28.772c9.96,2.021,20.435,3.603,30.261,1.904    c11.351-1.974,20.996-15.677,26.787-24.622c7.007-10.825-10.252-20.809-17.2-10.054c-3.491,5.389-8.617,13.195-14.871,15.449    c-7.018,2.511-19.822-1.892-26.986-3.445c-0.49-0.111-0.888,0.023-1.354-0.012c-0.187-5.657,0.123-11.589,0.753-17.761    c11.216,1.582,23.343,3.24,34.249,0.479c11.351-2.89,19.956-16.546,25.188-26.151c6.143-11.286-11.07-21.352-17.212-10.054    c-2.581,4.735-8.454,16.622-14.398,17.299c-5.628,0.648-11.49,0.064-17.113-0.368c-2.16-0.169-4.314-0.409-6.48-0.636    c-0.21-0.023-0.94-0.117-1.729-0.21c0.905-8.979,0.858-17.673-0.076-25.987c11.123-2.043,25.147-4.221,33.899-11.455    c8.711-7.199,12.424-20.47,14.304-31.219c2.219-12.564-17.001-17.936-19.22-5.295c-1.25,7.041-2.949,16.167-8.045,21.474    c-2.809,2.931-11.274,3.801-15.099,4.782c-3.264,0.823-6.58,1.506-9.879,2.166c-2.487-8.063-5.908-15.583-10.211-22.443    c8.466-4.221,17.446-9.365,22.239-16.529c6.329-9.447,6.458-22.922,5.395-33.887c-1.232-12.675-21.176-12.792-19.933,0    c0.684,6.971,1.495,16.05-1.757,22.467c-1.938,3.83-9.757,6.901-13.283,8.933c-1.81,1.039-3.672,1.95-5.518,2.931    c-10.638-10.451-23.996-18.28-39.719-22.612c-7.304-2.009-15.116-3.024-23.197-3.024c-40.093,0-85.722,26.163-92.739,69.94    c-0.362,2.341-0.59,4.577-0.935,6.889c-5.43,2.032-11.794,3.813-15.642,2.032c-7.929-3.696-14.958-12.617-20.867-18.929    c-8.775-9.423-22.834,4.7-14.083,14.083c7.555,8.122,17.837,20.832,28.936,23.821c6.107,1.646,12.588,1.291,18.929,0.012    c-0.864,7.94-1.494,15.7-1.927,23.308c-5.669,2.353-16.33,7.076-21.859,4.507c-7.923-3.696-14.958-12.605-20.85-18.929    c-8.781-9.423-22.84,4.706-14.1,14.094c7.555,8.122,17.842,20.832,28.936,23.833c8.828,2.382,18.415,0.73,27.19-2.154    c-0.035,10.153,0.396,19.956,1.185,29.514c-5.512,2.248-16.693,7.351-22.374,4.724c-7.923-3.696-14.958-12.605-20.85-18.929    c-8.77-9.435-22.828,4.688-14.088,14.071c7.555,8.11,17.842,20.832,28.936,23.821c10.048,2.703,21.048,0.193,30.758-3.445    c1.313,8.612,2.89,17.055,4.974,25.17c-0.35,0.205-0.683,0.216-1.028,0.467c-4.916,3.562-14.386,11.07-20.762,9.838    c-8.501-1.635-17.539-8.764-24.703-13.463c-10.771-7.077-20.744,10.188-10.054,17.206c9.359,6.16,20.23,13.709,31.376,15.857    c10.615,2.032,22.239-4.005,31.172-10.101c2.581,7.362,5.605,14.456,8.88,21.427c-0.49,0.502-1.039,0.864-1.454,1.506    c-3.492,5.453-9.809,15.309-16.862,15.483c-9.377,0.246-19.074-1.879-28.218-3.818c-12.547-2.639-17.877,16.582-5.301,19.221    c12.01,2.534,26.069,6.084,38.324,4.111c9.686-1.554,17.673-9.133,23.845-17.189c5.307,8.875,11.25,17.445,17.866,25.678    c-0.502,0.514-1.068,0.876-1.494,1.541c-3.492,5.454-9.809,15.31-16.862,15.484c-9.388,0.257-19.086-1.88-28.218-3.818    c-12.535-2.639-17.877,16.57-5.301,19.221c12.01,2.521,26.069,6.096,38.324,4.11c11.35-1.821,20.353-11.911,26.857-21.322    c7.83,8.255,16.336,16.231,25.637,23.892c-0.479,0.49-1.004,0.828-1.425,1.471c-3.491,5.441-9.803,15.285-16.855,15.484    c-9.389,0.244-19.086-1.893-28.224-3.818c-12.542-2.651-17.872,16.569-5.296,19.232c12.004,2.521,26.069,6.083,38.324,4.109    c12.629-2.02,22.338-14.27,28.936-24.475c9.96,7.251,20.458,14.07,31.376,20.435c-0.047,0.14-0.158,0.21-0.204,0.351    c-1.781,5.185-5.454,16.138-10.883,18.31c-9.003,3.62-20.826,3.153-30.419,3.433c-12.828,0.386-12.862,20.318,0,19.934    c11.958-0.362,29.14,0.49,39.726-5.781c9.575-5.697,15.291-16.277,19.25-26.623c8.647,4.484,17.469,8.688,26.425,12.541    c0.059,6.353-0.193,16.465-4.735,19.688c-7.794,5.488-17.218,9.271-26.063,12.74c-11.829,4.658-6.685,23.949,5.296,19.232    c12.074-4.741,25.549-9.716,35.417-18.346c6.504-5.709,8.886-15.997,9.651-25.479c11.596,4.332,23.284,8.186,34.938,11.361    c0.012,0.094-0.012,0.152,0,0.233c1.226,6.411,3.211,17.562-1.775,22.561c-6.679,6.679-15.344,11.806-23.372,16.722    c-10.942,6.702-0.934,23.949,10.06,17.212c10.101-6.2,25.643-14.06,31.527-24.744c4.484-8.139,5.127-17.714,4.239-27.009    c11.549,2.476,22.98,4.367,34.132,5.512c3.014,5.932,6.844,14.584,3.865,20.084c-4.461,8.244-11.093,15.602-17.305,22.584    c-8.514,9.575,5.534,23.717,14.105,14.105c8.723-9.82,18.59-20.551,23.249-32.976c2.499-6.645,0.946-14.854-1.763-22.467    c1.67,0.046,3.374,0.14,5.032,0.14c6.995,0,13.814-0.42,20.458-1.027c4.157,5.955,8.922,13.92,6.236,20.225    c-3.679,8.664-8.969,16.861-14.13,24.721c-7.1,10.777,10.171,20.75,17.212,10.054c6.691-10.159,14.83-21.743,17.388-33.794    c1.716-8.092-1.354-16.92-5.594-24.662c45.144-11.443,74.337-46.089,74.337-90.66c0-6.399-0.841-12.903-2.324-19.373    c9.996-3.468,21.171-7.672,27.873-15.051C525.985,319.694,527.433,305.297,527.667,294.052z M397.374,434.142    c-6.633,0.7-13.593,1.04-20.692,1.04c-72.456,0-153.034-35.697-200.747-71.056C95.497,304.502,68.284,223.942,87.667,102.967    c5.091-31.768,39.708-50.754,70.25-50.754c6.049,0,11.812,0.742,17.16,2.213c45.056,12.395,54.824,55.624,49.505,88.875    c-6.58,41.039-5.179,87.216,55.087,118.604c42.773,22.292,85.944,33.139,120.076,29.589c38.464-4.063,70.086,37.367,70.086,71.324    C469.818,409.889,430.782,430.662,397.374,434.142z"
   id="path11" />
	</g>
</g>
<path
   style="fill:#000000;stroke-width:1.02171"
   d="M 539.4636,657.87209 C 445.79027,649.66191 329.8311,602.22278 253.40018,540.84298 178.9655,481.06631 139.02132,409.18264 127.16257,313.66539 c -2.20218,-17.73765 -3.08151,-66.73154 -1.58618,-88.37803 2.68855,-38.91962 7.78614,-73.67002 12.45027,-84.87376 11.80318,-28.3525 39.51637,-49.490421 75.94764,-57.928184 13.47957,-3.121973 37.54204,-3.084984 49.29751,0.07578 26.08921,7.014769 46.79029,21.527214 60.36159,42.316344 9.70625,14.86849 15.47451,32.69412 17.62476,54.46568 1.32234,13.38889 0.87849,22.21906 -2.18095,43.38986 -2.58342,17.87672 -3.58894,47.6341 -2.01969,59.77011 8.29573,64.1557 47.27746,103.32023 137.06263,137.70535 25.8406,9.8962 49.91184,16.42876 75.04971,20.36733 12.39046,1.94132 18.67768,2.25362 46.99872,2.33446 31.32858,0.0894 32.99362,0.19237 39.84675,2.46358 15.59939,5.16979 27.82915,12.89908 40.41141,25.54029 15.03699,15.10742 26.74044,35.37747 32.20493,55.77801 3.62264,13.52443 3.88467,32.8438 0.63981,47.17468 -10.58364,46.74246 -50.88164,77.60642 -109.74207,84.0507 -11.3446,1.24206 -45.67228,1.21606 -60.06581,-0.0455 z m 63.52559,-36.40028 c 6.70018,-2.99109 13.58537,-9.69751 16.91327,-16.4741 2.49525,-5.08109 2.82874,-6.91397 2.81476,-15.47025 -0.0131,-8.03703 -0.41841,-10.52087 -2.35668,-14.44304 -3.77378,-7.63646 -8.85732,-12.75921 -16.2951,-16.42082 -6.10564,-3.0058 -7.75798,-3.36347 -15.53821,-3.36347 -7.24333,0 -9.65798,0.4465 -14.37206,2.65758 -7.81252,3.66438 -12.32498,7.91769 -16.28751,15.35218 -3.92638,7.36662 -5.14426,17.09767 -3.1424,25.10808 2.59774,10.39482 11.68765,20.38607 21.84593,24.01212 7.05321,2.51769 19.65568,2.06055 26.418,-0.95828 z M 445.21196,587.30499 c 16.69762,-7.87253 16.65623,-33.52373 -0.0671,-41.61938 -14.00937,-6.78181 -31.74855,2.02352 -33.97401,16.86394 -2.93708,19.58586 15.92001,33.29913 34.04115,24.75544 z m 197.40501,-52.41868 c 5.013,-2.59231 7.19146,-6.31251 7.19146,-12.28095 0,-5.96844 -2.17846,-9.68863 -7.19146,-12.28095 -6.54132,-3.38265 -15.1122,-0.70937 -18.40229,5.73972 -2.56987,5.03737 -2.5164,8.39592 0.21092,13.24852 3.62957,6.45797 11.69977,8.9306 18.19137,5.57366 z m -309.53906,-6.53183 c 10.52977,-7.45139 5.76395,-24.683 -6.91795,-25.01296 -11.32054,-0.29455 -18.17686,10.79596 -12.93767,20.92744 3.29211,6.36624 13.62748,8.49287 19.85562,4.08552 z m 229.77802,-7.93056 c 17.31432,-8.62809 17.18876,-33.71698 -0.20929,-41.81738 -10.69681,-4.98035 -23.1973,-1.79908 -29.79011,7.58134 -2.59192,3.68785 -3.12468,5.52477 -3.44562,11.88026 -0.33845,6.70242 -0.0688,8.08892 2.48556,12.78219 6.18737,11.36824 19.25131,15.40801 30.95946,9.57359 z M 427.58466,507.3252 c 6.62321,-3.24043 12.1208,-9.12741 15.6712,-16.78113 5.71993,-12.33069 2.55254,-29.10406 -7.31928,-38.76035 -6.74311,-6.59588 -14.84747,-9.83011 -24.71924,-9.86477 -7.23209,-0.0254 -8.9968,0.36585 -15.01646,3.32933 -12.54519,6.17597 -19.40299,17.28644 -19.36899,31.38007 0.0197,8.14157 1.78098,13.85171 6.29759,20.41637 3.17363,4.61272 9.72529,9.7967 15.00522,11.87284 8.43102,3.31518 20.78456,2.64722 29.44996,-1.59236 z M 248.07117,440.95967 c 13.958,-7.292 13.13586,-27.31653 -1.34864,-32.84821 -8.43099,-3.21983 -18.71233,0.48917 -22.2972,8.04373 -2.06842,4.35886 -2.20176,13.1075 -0.25676,16.84574 1.81512,3.48862 5.48581,6.93782 8.78214,8.25225 3.7871,1.51012 11.97217,1.35123 15.12046,-0.29351 z m 82.51998,-45.03208 c 7.74692,-4.53999 10.55678,-14.03549 6.67952,-22.57239 -7.77611,-17.12131 -33.82239,-11.6926 -33.82239,7.04945 0,11.25937 6.58801,17.93353 17.79018,18.02279 3.55572,0.0283 6.28221,-0.70042 9.35269,-2.49985 z M 204.06012,342.22287 c 9.64403,-4.72638 15.78059,-13.10748 17.46585,-23.85425 2.42679,-15.47544 -5.10563,-29.7657 -19.05597,-36.15237 -8.18626,-3.7478 -18.83302,-3.76855 -26.85826,-0.0524 -7.7807,3.60296 -13.55915,9.07118 -16.91933,16.01097 -3.70491,7.65177 -4.00993,20.51084 -0.66122,27.87612 8.06579,17.74023 28.31331,24.85403 46.02893,16.17189 z m 64.77295,-75.34596 c 9.74404,-5.09035 14.64377,-17.61759 11.09565,-28.3685 -1.94248,-5.88577 -8.44054,-12.30195 -14.49583,-14.3132 -20.3307,-6.75278 -38.18933,14.07924 -28.4446,33.18049 5.82472,11.4174 20.0515,15.6621 31.84478,9.50121 z m 23.52101,-86.19804 c 13.53281,-4.05453 21.1969,-22.12335 15.09837,-35.59586 -9.15072,-20.21525 -38.24937,-20.55333 -47.56293,-0.5526 -6.33516,13.60467 0.48263,31.01859 14.06918,35.93534 4.45719,1.61299 13.37808,1.71634 18.39538,0.21312 z m -76.36094,-10.41928 c 4.94932,-3.77504 6.8859,-7.89064 6.8859,-14.63388 0,-13.5473 -13.44601,-21.59617 -25.71944,-15.39582 -10.47579,5.2922 -13.01974,18.31318 -5.35707,27.41974 3.822,4.5422 7.90633,6.13396 14.7387,5.74406 4.39597,-0.25086 6.65295,-0.99924 9.45191,-3.1341 z"
   id="path12"
   transform="scale(0.65958625)" /><path
   style="fill:#ffffff;stroke-width:1.02171;fill-opacity:1"
   d="m 538.95275,657.31862 c -1.68583,-0.19653 -7.43295,-0.85468 -12.7714,-1.46256 C 443.95892,646.49349 336.58928,602.67128 266.23548,549.76088 188.05272,490.96261 145.5951,422.5459 130.31418,330.73573 c -3.57096,-21.45489 -4.639,-38.21195 -4.63705,-72.75361 0.003,-53.03832 6.2056,-102.97602 15.08357,-121.4387 13.54285,-28.16383 45.47508,-49.531537 82.00235,-54.872531 11.41481,-1.669065 33.03051,-0.678504 41.86019,1.918285 30.05875,8.840213 51.75436,26.601936 64.33337,52.668336 5.69729,11.80602 8.54801,21.33749 10.7487,35.93859 2.11676,14.04427 1.9282,26.75551 -0.68144,45.93928 -3.07517,22.60582 -3.32863,64.09124 -0.47104,77.09784 10.58175,48.16393 38.60145,79.91941 95.16365,107.85154 37.09919,18.32071 74.21945,30.77977 111.36653,37.37911 10.26164,1.82303 18.25722,2.29568 49.04215,2.89908 l 36.78161,0.72094 8.54543,3.21649 c 14.46876,5.44602 24.68221,12.2978 36.95073,24.78871 24.58341,25.02901 37.41648,59.10167 33.94853,90.13559 -5.61312,50.23045 -44.20772,85.1988 -103.97644,94.20709 -7.37802,1.11201 -17.70959,1.49755 -37.28179,1.39124 -14.89144,-0.0809 -28.45466,-0.30785 -30.14048,-0.50439 z m 64.87867,-35.7655 c 5.67345,-2.57562 12.13996,-8.77231 15.99055,-15.32331 2.74447,-4.66917 2.91111,-5.62526 2.91111,-16.70235 0,-11.01109 -0.1787,-12.05368 -2.84277,-16.58574 -3.67682,-6.25493 -8.5534,-10.93596 -15.2688,-14.65655 -4.99479,-2.76731 -6.17031,-2.98504 -16.11576,-2.98504 -9.72989,0 -11.22384,0.26139 -16.0578,2.80961 -11.80997,6.22561 -17.87237,16.07931 -18.50622,30.07966 -0.55366,12.22932 1.4499,17.45589 9.94832,25.95162 8.66853,8.66577 12.62368,10.17584 25.63741,9.78836 7.1163,-0.21188 10.93308,-0.84595 14.30396,-2.37626 z M 441.62385,589.14787 c 10.50222,-3.1607 16.10284,-10.95051 16.10284,-22.39718 0,-16.01695 -12.55843,-26.42605 -28.01207,-23.21789 -11.64776,2.41807 -19.00654,11.33016 -18.96421,22.96722 0.0609,16.73134 14.74365,27.50221 30.87344,22.64785 z m 202.04303,-54.27614 c 4.66304,-2.41135 6.14155,-5.36433 6.14155,-12.26637 0,-9.28313 -4.34293,-13.7931 -13.28225,-13.7931 -10.97568,0 -17.7146,10.87512 -12.72179,20.53015 3.27603,6.33513 13.04521,9.05468 19.86249,5.52932 z m -312.1111,-5.0529 c 5.25679,-2.19643 7.85668,-7.01115 7.36627,-13.64153 -0.4927,-6.6612 -3.10795,-10.44988 -8.53929,-12.37073 -12.22455,-4.32334 -23.00858,7.1187 -18.15113,19.25867 2.80128,7.00107 11.47594,10.03278 19.32415,6.75359 z m 230.95335,-8.62969 c 5.36591,-2.43727 11.1109,-9.2041 12.73305,-14.99786 4.37028,-15.60916 -6.5328,-29.98961 -22.78458,-30.05135 -7.02894,-0.0267 -12.26916,1.96095 -16.91259,6.41504 -5.18647,4.97499 -6.29852,7.89543 -6.29852,16.541 0,10.89111 3.85755,17.63442 12.77139,22.32538 4.32383,2.27546 15.24278,2.15172 20.49125,-0.23221 z M 425.76856,508.62943 c 6.84795,-2.54852 13.94251,-9.43677 17.46914,-16.96114 2.33707,-4.98634 2.73931,-7.19827 2.73931,-15.06377 0,-8.34883 -0.31548,-9.85988 -3.34155,-16.00455 -5.69097,-11.55599 -15.84059,-18.13454 -29.29732,-18.98928 -8.99984,-0.57165 -13.89746,0.72739 -21.66144,5.7455 -6.63782,4.29024 -11.87202,11.09419 -13.8263,17.97288 -1.77245,6.23871 -1.49988,17.67087 0.5671,23.78484 2.12174,6.27594 9.12908,14.51419 15.54255,18.27273 8.15737,4.78053 20.95852,5.28068 31.80851,1.24279 z m -175.34494,-68.5355 c 4.35339,-2.89306 8.06936,-10.0901 8.06936,-15.62865 0,-13.65723 -15.0546,-22.1199 -27.57332,-15.49984 -5.92986,3.13579 -8.18763,7.56441 -8.18276,16.05055 0.007,11.82743 5.58204,17.37448 17.46961,17.38121 5.3006,0.003 7.48907,-0.49035 10.21711,-2.30327 z m 80.69088,-43.94966 c 8.05896,-5.43093 10.38373,-14.77871 5.95212,-23.93319 -5.80406,-11.98959 -23.62525,-12.73609 -31.37644,-1.31429 -2.10113,3.09612 -2.3693,4.51965 -2.0564,10.916 0.41,8.38117 2.34571,11.95087 8.06081,14.86506 5.26943,2.68694 15.03931,2.41851 19.41991,-0.53358 z M 202.80971,343.42068 c 6.68771,-2.96426 14.13691,-10.38377 16.95762,-16.89001 2.93915,-6.77944 3.19882,-18.30896 0.58248,-25.86169 -2.45248,-7.07973 -9.49748,-14.77282 -16.82224,-18.36976 -4.99395,-2.45236 -7.06726,-2.86116 -14.51097,-2.86116 -10.39085,0 -17.28345,2.72865 -24.36543,9.64582 -6.95608,6.79421 -8.84019,11.92439 -8.84019,24.07065 0,9.54892 0.20765,10.58321 3.17505,15.8149 3.95094,6.96573 10.60022,12.69884 17.84161,15.38332 7.31632,2.71225 18.67977,2.3046 25.98207,-0.93207 z m 65.99511,-76.06555 c 8.68393,-4.5834 14.10201,-15.55477 12.53156,-25.37583 -1.04346,-6.52545 -6.12704,-13.18116 -12.55407,-16.43652 -16.33975,-8.27624 -34.73804,2.66903 -34.77799,20.68966 -0.0218,9.82941 5.8319,18.98219 14.30207,22.36261 1.38807,0.55398 5.55488,1.03637 9.25961,1.07198 5.16705,0.0497 7.7846,-0.48876 11.23882,-2.3119 z m 27.17014,-87.62567 c 9.10595,-4.40812 14.11953,-14.27073 13.43277,-26.42466 -0.50266,-8.89576 -4.30929,-15.48286 -11.52576,-19.94446 -4.61374,-2.85246 -5.7266,-3.09214 -14.35707,-3.09214 -8.63046,0 -9.74332,0.23968 -14.35706,3.09214 -7.58295,4.68818 -11.09345,11.06511 -11.54371,20.96954 -0.2796,6.15034 0.0765,8.85261 1.62639,12.34072 4.82646,10.86238 11.72476,15.19198 24.20724,15.19322 6.13566,6.1e-4 9.17886,-0.5183 12.5172,-2.13436 z m -81.73424,-7.73077 c 6.83757,-3.24464 10.59597,-12.56553 8.45517,-20.96895 -2.04543,-8.02908 -8.42005,-13.08844 -16.49911,-13.09489 -8.30404,-0.007 -14.85145,4.01614 -17.81687,10.94677 -3.2034,7.48684 -0.0899,17.88735 6.73873,22.51046 4.22301,2.85905 13.73923,3.16093 19.12208,0.60661 z"
   id="path13"
   transform="scale(0.65958625)" /></svg>
